<svg width="1031" height="1031" viewBox="0 0 1031 1031" fill="none" xmlns="http://www.w3.org/2000/svg">
<g clip-path="url(#clip0_20_2)">
<path d="M0 0H1031.46V1031.46H0V0Z" fill="#2E3D53"/>
<path d="M742.074 386.081C813.965 386.439 810.27 371.333 809.821 443.652C823.631 443.627 872.782 440.591 882.329 447.256C884.883 449.039 886.827 451.74 887.222 454.871C888.532 465.178 888.783 510.274 883.109 516.692C880.663 519.454 870.958 519.429 867.232 519.581C845.493 520.462 823.451 519.68 801.68 519.678L675.779 519.676L291.336 519.664L203.214 519.756C188.357 519.769 173.639 520.073 158.274 519.215C140.265 518.21 147.985 490.532 146.203 478.371C146.016 473.722 144.984 448.877 150.312 446.939C165.474 441.429 216.283 443.65 230.628 443.65L355.151 443.652L733.464 443.714C733.735 428.256 731.949 411.274 733.951 396.224C734.666 390.847 737.828 388.741 742.074 386.081Z" fill="#D9DBDB"/>
<path d="M477.834 551.035L554.028 551.023C555.187 600.995 554.185 655.222 554.121 705.454L732.903 705.492L732.692 551L809.17 551.054L809.182 674.023L809.176 705.469C843.297 705.384 896.735 704.165 932.5 706.483C939.38 706.929 941.66 722.718 928.23 723.528C913.794 724.401 898.848 723.428 884.074 723.474L752.294 723.586L269.995 723.62L155.27 723.462C143.095 723.439 103.949 725.971 96.1199 720.247C91.4536 713.192 94.787 706.096 103.216 705.663C116.534 704.98 129.94 705.281 143.286 705.304L222.819 705.502L222.881 551.017L299.011 551.052L298.996 705.502L477.977 705.536C478.527 654.471 477.948 602.183 477.834 551.035Z" fill="#D9DBDB"/>
<path d="M764.396 307.87C773.449 305.447 783.082 308.168 789.616 314.999C796.151 321.831 798.578 331.715 795.97 340.877C793.365 350.039 786.126 357.066 777.02 359.275C763.169 362.633 749.242 354.008 745.784 339.931C742.327 325.853 750.625 311.56 764.396 307.87Z" fill="#FACC8E"/>
</g>
<defs>
<clipPath id="clip0_20_2">
<rect width="1031" height="1031" fill="white"/>
</clipPath>
</defs>
</svg>
