<?xml version="1.0" encoding="utf-8" ?><svg xmlns="http://www.w3.org/2000/svg" xmlns:xlink="http://www.w3.org/1999/xlink" width="1031" height="1031" viewBox="0 0 1031 1031"><path fill="#D9DBDB" transform="scale(1.00729 1.00729)" d="M0 0L1024 0L1024 1024L0 1024L0 0Z"/><path fill="#2E3D53" transform="scale(1.00729 1.00729)" d="M196.525 664.268C196.892 656.846 196.506 645.38 196.498 637.606L196.467 584.209L196.479 419.01C196.296 397.827 196.487 376.642 197.051 355.465C198.163 313.367 200.768 276.08 230.486 242.513C257.216 212.322 290.779 200.266 330.191 197.929C358.454 196.253 386.177 196.559 414.477 196.558L530.82 196.556L627.809 196.547C655.122 196.549 696.02 196.17 722.439 201.401C744.855 205.836 765.701 216.119 782.861 231.207C792.195 239.512 800.243 249.159 806.741 259.83C824.968 289.821 824.773 313.959 826.924 346.771C829.133 352.275 828.255 420.14 828.253 431.307L828.268 537.463L828.23 631.742C828.218 650.401 828.563 670.346 827.763 688.856C827.396 698.845 826.432 708.802 824.877 718.676C823.96 724.175 822.727 729.752 821.714 735.257C820.821 740.114 821.704 749.309 818.328 752.656C816.63 756.959 814.648 757.658 813.088 761.04C810.725 766.165 808.525 772.773 805.554 777.613C796.399 792.527 777.893 809.921 762.84 818.722C764.23 819.022 764.569 818.788 765.087 819.521C763.23 820.489 762.983 818.847 757.907 821.005C748.079 824.705 736.287 831.411 725.964 833.124C698.383 837.701 668.107 837.272 640.36 837.252L580.737 837.23L556.528 837.346C552.016 837.344 547.474 837.053 542.983 837.323C544.015 837.561 543.536 837.311 544.362 838.179C542.886 839.089 534.963 837.22 532.253 837.221C525.764 837.222 519.137 836.874 512.655 836.825L403.905 836.73C373.148 836.729 346.947 836.728 316.328 834.005C272.501 830.107 239.707 807.463 216.808 770.935L216.516 771.002L216.442 774.002L215.738 774.086C214.201 773.008 214.065 772.912 213.396 771.187L209.144 760.328L209.749 759.94L211.842 760.465C211.837 759.711 211.537 758.628 211.231 757.941C198.973 730.433 193.708 694.571 196.525 664.268Z"/><path fill="#A6A8AB" transform="scale(1.00729 1.00729)" d="M826.924 346.771C829.133 352.275 828.255 420.14 828.253 431.307L828.268 537.463L828.23 631.742C828.218 650.401 828.563 670.346 827.763 688.856C827.396 698.845 826.432 708.802 824.877 718.676C823.96 724.175 822.727 729.752 821.714 735.257C820.821 740.114 821.704 749.309 818.328 752.656C816.63 756.959 814.648 757.658 813.088 761.04C810.725 766.165 808.525 772.773 805.554 777.613C796.399 792.527 777.893 809.921 762.84 818.722C764.23 819.022 764.569 818.788 765.087 819.521C763.23 820.489 762.983 818.847 757.907 821.005C748.079 824.705 736.287 831.411 725.964 833.124C698.383 837.701 668.107 837.272 640.36 837.252L580.737 837.23L556.528 837.346C552.016 837.344 547.474 837.053 542.983 837.323C544.015 837.561 543.536 837.311 544.362 838.179C542.886 839.089 534.963 837.22 532.253 837.221C525.764 837.222 519.137 836.874 512.655 836.825L403.905 836.73C373.148 836.729 346.947 836.728 316.328 834.005C272.501 830.107 239.707 807.463 216.808 770.935L216.516 771.002L216.442 774.002L215.738 774.086C214.201 773.008 214.065 772.912 213.396 771.187L209.144 760.328L209.749 759.94L211.842 760.465C211.837 759.711 211.537 758.628 211.231 757.941C198.973 730.433 193.708 694.571 196.525 664.268L196.593 664.858C197.61 674.299 197.228 687.809 197.885 697.927C200.578 739.378 214.404 772.009 246.947 798.536C263.779 812.008 283.819 820.88 305.108 824.285C328.35 828.189 365.021 827.53 389.19 827.54L500.379 827.55L624.867 827.554C652.533 827.548 681.077 827.983 708.545 825.659C743.698 822.686 775.214 806.125 797.343 778.666C807.329 766.275 812.633 755.637 818.596 741.012C819.002 738.454 820.41 734.349 821.086 731.577C827.671 704.557 827.392 675.48 827.436 647.717L827.445 583.921L826.924 346.771Z"/><path fill="#D9DBDB" transform="scale(1.00729 1.00729)" d="M620.747 441.527C655.437 441.701 653.654 434.357 653.437 469.516C660.101 469.504 683.818 468.028 688.425 471.268C689.657 472.135 690.595 473.448 690.786 474.97C691.418 479.981 691.539 501.905 688.801 505.025C687.621 506.368 682.938 506.356 681.14 506.43C670.65 506.858 660.014 506.478 649.509 506.477L588.757 506.476L403.25 506.47L360.728 506.515C353.559 506.521 346.457 506.669 339.043 506.252C330.353 505.763 334.078 492.307 333.218 486.395C333.128 484.135 332.63 472.056 335.201 471.114C342.517 468.435 367.034 469.515 373.956 469.515L434.043 469.516L616.592 469.546C616.723 462.031 615.861 453.775 616.827 446.458C617.172 443.844 618.698 442.82 620.747 441.527Z"/><path fill="#D9DBDB" transform="scale(1.00729 1.00729)" d="M493.6 521.535L530.356 521.529C530.915 545.528 530.432 571.571 530.401 595.695L616.646 595.713L616.544 521.518L653.437 521.544L653.443 580.6L653.44 595.702C669.9 595.661 695.679 595.076 712.932 596.189C716.251 596.403 717.351 603.986 710.872 604.375C703.908 604.794 696.698 604.327 689.571 604.349L626 604.403L393.338 604.419L337.994 604.343C332.121 604.332 313.237 605.548 309.46 602.799C307.209 599.411 308.817 596.003 312.883 595.795C319.308 595.467 325.775 595.612 332.213 595.623L370.58 595.718L370.61 521.526L407.335 521.543L407.328 595.718L493.669 595.734C493.934 571.21 493.655 546.099 493.6 521.535Z"/><path fill="#FACC8E" transform="scale(1.00729 1.00729)" d="M631.927 403.871C636.288 402.726 640.928 404.012 644.075 407.24C647.223 410.469 648.392 415.14 647.136 419.47C645.881 423.8 642.394 427.121 638.008 428.165C631.336 429.752 624.628 425.676 622.962 419.023C621.297 412.37 625.294 405.615 631.927 403.871Z"/></svg>